{"asset":{"version":"2.0","generator":"babylon.js glTF exporter for Autodesk Maya 2019.2 v20210621.2"},"scene":0,"scenes":[{"nodes":[0]}],"nodes":[{"mesh":0,"name":"light_center"}],"meshes":[{"primitives":[{"attributes":{"POSITION":1,"NORMAL":2,"TEXCOORD_0":3},"indices":0,"material":0}],"name":"light_center"}],"accessors":[{"bufferView":0,"componentType":5123,"count":2766,"type":"SCALAR","name":"accessorIndices"},{"bufferView":1,"componentType":5126,"count":560,"max":[0.3724607,1.8430804,0.997492969],"min":[0.205573559,1.82665312,0.6818228],"type":"VEC3","name":"accessorPositions"},{"bufferView":1,"byteOffset":6720,"componentType":5126,"count":560,"type":"VEC3","name":"accessorNormals"},{"bufferView":2,"componentType":5126,"count":560,"type":"VEC2","name":"accessorUVs"}],"bufferViews":[{"buffer":0,"byteLength":5532,"name":"bufferViewScalar"},{"buffer":0,"byteOffset":5532,"byteLength":13440,"byteStride":12,"name":"bufferViewFloatVec3"},{"buffer":0,"byteOffset":18972,"byteLength":4480,"byteStride":8,"name":"bufferViewFloatVec2"}],"buffers":[{"uri":"del.bin","byteLength":23452}],"materials":[{"pbrMetallicRoughness":{"baseColorFactor":[0.0259740259,0.0259740259,0.0259740259,1.0],"metallicFactor":0.0,"roughnessFactor":0.182871282},"name":"blinn6"}]}